<?xml version="1.0" standalone="no"?>
<!DOCTYPE svg PUBLIC "-//W3C//DTD SVG 20010904//EN"
 "http://www.w3.org/TR/2001/REC-SVG-20010904/DTD/svg10.dtd">
<svg version="1.0" xmlns="http://www.w3.org/2000/svg"
 width="1024.000000pt" height="1024.000000pt" viewBox="0 0 1024.000000 1024.000000"
 preserveAspectRatio="xMidYMid meet">
<metadata>
Created by potrace 1.11, written by Peter Selinger 2001-2013
</metadata>
<g transform="translate(0.000000,1024.000000) scale(0.100000,-0.100000)"
fill="#000000" stroke="none">
<path d="M5945 8290 c-240 -52 -373 -223 -332 -424 16 -78 16 -77 -83 -129
-50 -26 -85 -56 -152 -131 -49 -54 -88 -106 -88 -116 0 -11 -9 -24 -20 -30
-58 -31 -49 -89 20 -131 28 -17 50 -35 50 -39 0 -5 -19 -21 -42 -37 -43 -29
-92 -89 -129 -158 -12 -22 -23 -42 -25 -44 -1 -1 -13 4 -26 13 -33 24 -54 20
-95 -18 -31 -27 -49 -34 -98 -39 -33 -4 -103 -17 -155 -31 -52 -13 -96 -23
-97 -22 -2 2 8 36 22 77 100 290 167 731 135 884 -24 117 -84 145 -310 145
-218 0 -587 -61 -828 -138 -92 -29 -130 -36 -179 -34 -92 4 -144 -29 -179
-113 -10 -24 -45 -67 -90 -108 -133 -124 -283 -318 -379 -492 -80 -145 -398
-473 -580 -597 -131 -89 -221 -143 -255 -153 -61 -18 -79 -69 -36 -103 14 -10
46 -27 73 -37 26 -10 52 -21 56 -25 5 -4 -4 -76 -19 -161 l-27 -154 71 -65 72
-65 4 -200 c7 -283 31 -376 143 -553 49 -77 147 -206 203 -266 25 -27 38 -46
30 -41 -26 15 -210 168 -322 268 -59 53 -127 107 -150 121 -130 75 -310 75
-447 1 -70 -39 -125 -95 -206 -214 l-68 -101 -48 45 c-148 138 -339 215 -534
215 -323 0 -563 -200 -647 -537 -30 -120 -29 -313 0 -425 88 -330 364 -653
702 -823 164 -83 307 -121 488 -132 l112 -6 20 -68 c43 -142 140 -310 265
-454 50 -57 55 -69 123 -280 39 -121 69 -221 67 -224 -7 -7 -209 -40 -373 -61
-83 -11 -161 -24 -171 -29 -59 -32 -92 -114 -73 -180 16 -52 47 -78 207 -174
1630 -979 3594 -1240 5425 -722 611 172 1283 470 1776 787 100 64 129 138 88
224 -27 58 -66 73 -236 95 -147 18 -367 54 -373 61 -2 2 17 62 41 133 77 223
116 365 112 404 -3 27 3 48 24 84 38 65 81 169 102 248 l18 66 72 -19 c89 -24
253 -25 363 -3 151 31 327 114 475 226 92 69 341 329 416 435 169 236 258 526
232 750 -13 119 -27 169 -77 273 -87 182 -269 323 -471 367 -76 16 -79 18
-101 59 -80 152 -278 303 -466 357 -112 31 -286 31 -399 -1 -147 -41 -308
-139 -477 -290 -66 -60 -208 -212 -241 -260 -11 -16 -32 -26 -65 -32 -65 -13
-159 -59 -212 -105 -53 -46 -114 -137 -136 -204 -13 -40 -32 -64 -98 -124
l-83 -74 -80 -11 c-45 -7 -112 -20 -149 -31 -38 -11 -70 -19 -71 -17 -1 1 -12
40 -24 86 -19 75 -20 85 -6 93 9 5 36 27 62 48 25 22 49 40 54 40 19 0 132
104 162 149 32 47 32 48 117 64 135 25 248 78 428 198 109 74 188 143 235 207
23 31 70 86 104 122 73 75 106 138 81 154 -13 8 -9 17 25 55 75 84 86 152 29
172 l-29 10 23 42 c13 22 31 69 41 103 15 57 15 65 1 93 -14 27 -14 37 -3 70
23 65 38 150 31 182 -4 16 -18 37 -31 45 -24 16 -32 15 -96 -11 -14 -5 -18 -2
-18 13 0 28 -37 52 -80 52 -19 0 -64 -14 -98 -30 -41 -19 -80 -30 -108 -30
-112 0 -418 -151 -512 -253 l-24 -25 -76 35 c-192 89 -363 125 -585 124 -158
-1 -161 0 -251 56 l-38 25 63 31 c44 22 64 38 64 51 0 16 -10 18 -80 20 -173
5 -242 58 -312 239 l-41 106 44 46 c57 59 118 151 111 168 -3 7 8 28 23 47
l28 34 89 -28 c175 -53 274 -45 348 29 58 57 85 134 92 255 4 80 2 105 -17
159 -26 78 -61 131 -128 193 -51 48 -155 106 -229 128 -41 13 -43 15 -53 69
-53 270 -115 420 -192 465 -37 22 -165 31 -233 16z m208 -59 c68 -44 105 -133
157 -374 40 -184 73 -273 117 -319 42 -44 46 -33 9 20 -30 43 -71 140 -62 149
6 6 94 -35 149 -70 164 -105 243 -261 216 -427 -14 -86 -38 -138 -82 -177 -41
-36 -86 -48 -155 -41 -61 6 -202 48 -202 61 0 5 18 31 41 58 22 27 36 49 31
49 -12 0 -172 -160 -172 -172 0 -4 -4 -8 -9 -8 -4 0 -14 28 -21 63 -45 228
-162 459 -299 590 -76 73 -125 97 -198 97 l-58 1 30 25 c17 13 89 54 160 89
72 36 123 65 114 65 -27 0 -121 -31 -184 -61 -40 -19 -63 -25 -70 -18 -16 16
-11 159 8 201 37 86 147 171 264 203 75 20 182 19 216 -4z m-1445 -226 c79
-24 87 -45 86 -230 -1 -195 -27 -321 -76 -373 -77 -78 -171 -120 -416 -182
-185 -47 -265 -84 -331 -150 -69 -69 -103 -145 -109 -242 -6 -110 -3 -114 57
-73 130 87 263 104 451 59 151 -36 352 -45 429 -19 59 19 130 80 208 177 29
37 60 68 68 68 40 0 66 -130 28 -144 -9 -4 -20 -1 -24 6 -6 9 -10 8 -14 -4 -4
-10 -26 -29 -50 -43 -51 -29 -101 -87 -142 -165 -26 -47 -37 -58 -79 -74 -43
-16 -64 -17 -174 -10 -202 12 -239 10 -295 -19 -54 -27 -97 -69 -193 -187
-123 -152 -275 -229 -455 -231 -48 0 -57 -2 -39 -9 36 -15 227 -49 348 -63
l112 -12 -16 -38 -15 -39 -81 7 c-170 14 -333 62 -444 129 -159 96 -468 390
-575 547 -31 45 -57 79 -57 74 0 -17 84 -162 151 -260 158 -232 351 -411 569
-528 157 -85 389 -147 548 -147 l63 0 -38 -41 c-149 -160 -262 -392 -308 -630
-42 -219 -25 -519 41 -749 36 -124 47 -156 59 -170 7 -8 10 -20 8 -27 -2 -6
10 -44 27 -84 17 -39 29 -73 28 -75 -6 -5 -217 53 -285 80 -64 24 -82 38 -156
116 -81 85 -204 246 -195 256 3 2 25 -26 51 -64 54 -78 152 -189 161 -181 3 3
-16 30 -41 60 -26 29 -35 43 -20 30 15 -14 27 -19 27 -13 0 6 -4 13 -10 17 -5
3 -19 20 -31 38 l-23 32 22 -19 c31 -27 27 -13 -10 42 -30 45 -30 46 -5 23 31
-28 35 -20 8 17 -10 15 -24 38 -30 52 -11 22 -10 21 13 -5 34 -41 32 -23 -5
44 l-31 56 31 -35 32 -35 -31 65 c-17 36 -24 56 -16 46 9 -10 17 -24 19 -30 2
-6 7 -8 11 -4 4 3 -2 25 -14 48 -21 42 -22 71 0 31 21 -40 30 -21 10 20 -23
45 -20 60 7 38 15 -13 16 -12 9 6 -5 11 -11 31 -13 45 -5 24 -5 25 11 5 17
-22 22 -5 6 25 -7 12 -3 46 11 111 11 52 27 146 35 209 16 138 17 147 5 134
-4 -5 -14 -56 -22 -114 l-13 -105 -7 80 c-11 134 -34 197 -96 266 l-36 40 -22
-33 c-87 -128 -190 -353 -234 -508 -55 -199 -70 -470 -37 -664 8 -49 12 -94 9
-100 -4 -6 1 -5 10 2 38 32 231 383 287 525 12 32 25 56 27 53 6 -6 -53 -155
-108 -274 -63 -134 -139 -259 -194 -319 l-45 -48 -34 38 c-91 101 -204 557
-227 910 -9 141 2 494 17 537 4 11 2 12 -6 4 -5 -6 -16 -62 -22 -125 -10 -97
-13 -109 -21 -79 -4 19 -11 136 -15 260 l-7 225 -15 -60 c-24 -98 -19 -320 10
-420 13 -44 25 -109 26 -145 l3 -65 -20 60 c-48 141 -70 267 -75 414 -2 80 -6
146 -8 148 -2 2 -8 -22 -15 -53 -22 -112 -14 -217 34 -424 3 -14 -1 -8 -9 12
-20 50 -53 207 -62 293 -6 62 -8 67 -16 40 -12 -41 -1 -175 22 -274 23 -94 78
-242 121 -320 21 -39 29 -67 28 -100 l-1 -46 -43 90 c-125 263 -187 573 -188
940 0 215 10 331 48 520 77 385 271 778 506 1026 l70 74 -46 -64 c-170 -239
-232 -497 -170 -706 59 -196 277 -332 470 -295 65 13 147 50 183 84 65 59 75
165 28 306 -17 50 -31 116 -34 162 -4 70 -2 83 22 132 32 65 77 103 177 151
150 70 312 79 531 29 127 -29 179 -30 233 -5 98 44 145 145 153 327 8 191 -21
258 -121 285 -35 9 -95 3 -397 -40 -195 -29 -403 -61 -462 -72 -172 -33 -157
-17 27 29 300 73 476 99 686 101 104 1 160 -3 197 -14z m-1198 -200 c-14 -8
-29 -14 -35 -14 -5 0 1 6 15 14 14 8 30 14 35 14 6 0 -1 -6 -15 -14z m2259
-115 c96 -44 228 -215 307 -398 38 -89 94 -294 94 -347 0 -23 -14 -50 -50 -99
-28 -36 -54 -66 -58 -66 -4 0 -24 44 -44 98 -100 259 -274 481 -443 562 -66
32 -180 54 -221 44 -36 -9 -28 3 69 110 64 70 87 88 125 100 70 22 168 20 221
-4z m-2025 -26 c37 -37 3 -98 -50 -92 -18 2 -34 13 -43 29 -13 24 -13 29 2 53
20 30 66 35 91 10z m173 -62 c58 -87 58 -87 12 -101 -23 -7 -47 -15 -55 -18
-11 -4 -12 1 -3 26 6 17 9 56 7 86 -1 30 -1 55 2 55 3 0 19 -21 37 -48z m-243
-181 c21 -5 52 -7 69 -4 l31 6 -49 -56 -50 -57 -23 27 c-30 37 -68 102 -77
133 -7 24 -6 24 26 -7 19 -17 51 -36 73 -42z m2088 -180 c49 -55 61 -156 33
-266 -22 -84 -57 -133 -112 -157 -39 -17 -52 -19 -83 -9 -139 41 -160 258 -39
396 51 58 87 77 134 71 28 -3 48 -14 67 -35z m-368 -37 c22 -21 19 -81 -4
-124 l-19 -35 -1 39 c0 45 -23 76 -56 76 -49 0 -123 -95 -124 -160 0 -65 61
-90 115 -48 25 19 27 20 17 2 -6 -10 -21 -29 -35 -42 -21 -20 -31 -22 -76 -16
-59 8 -67 22 -58 100 14 128 179 270 241 208z m-86 -111 c-4 -32 -38 -46 -38
-16 0 20 18 43 33 43 4 0 7 -12 5 -27z m651 -148 c0 -5 -13 15 -29 45 -16 30
-29 60 -29 65 0 6 13 -15 29 -45 16 -30 29 -59 29 -65z m-689 81 c0 -8 -4 -17
-9 -21 -12 -7 -24 12 -16 25 9 15 25 12 25 -4z m627 -78 c-3 -7 -5 -2 -5 12 0
14 2 19 5 13 2 -7 2 -19 0 -25z m90 -80 c-3 -8 -6 -5 -6 6 -1 11 2 17 5 13 3
-3 4 -12 1 -19z m-681 -23 c76 -40 87 -59 52 -90 -31 -27 -46 -26 -142 7 -107
36 -243 8 -297 -61 -10 -13 -19 -20 -19 -15 0 16 74 106 111 136 83 67 193 75
295 23z m691 -17 c-3 -8 -6 -5 -6 6 -1 11 2 17 5 13 3 -3 4 -12 1 -19z m-516
-18 c10 -6 19 -19 19 -28 0 -28 -49 -91 -75 -98 -68 -17 -73 78 -7 119 32 20
37 20 63 7z m538 -50 c0 -9 -4 -8 -9 5 -5 11 -9 27 -9 35 0 9 4 8 9 -5 5 -11
9 -27 9 -35z m-300 36 c-2 -2 -15 -9 -29 -15 -24 -11 -24 -11 -6 3 16 13 49
24 35 12z m84 -3 c-7 -2 -21 -2 -30 0 -10 3 -4 5 12 5 17 0 24 -2 18 -5z m261
-163 c5 -17 4 -20 -2 -10 -5 8 -13 26 -16 40 -5 17 -4 20 2 10 5 -8 13 -26 16
-40z m-586 -98 c-14 -148 -148 -286 -298 -306 l-45 -7 35 27 c72 56 256 251
280 297 14 26 27 47 29 47 2 0 1 -26 -1 -58z m632 -17 c0 -5 -5 -3 -10 5 -5 8
-10 20 -10 25 0 6 5 3 10 -5 5 -8 10 -19 10 -25z m55 -82 c21 -27 28 -39 16
-28 -23 19 -66 75 -59 75 2 0 21 -21 43 -47z m-1224 -22 c-11 -29 -32 -69 -47
-89 -43 -57 -155 -171 -189 -192 -62 -38 -343 -100 -524 -114 l-75 -7 24 26
c27 29 20 47 -9 21 -17 -16 -18 -16 -14 7 5 24 6 24 171 30 184 6 318 26 393
59 60 25 141 109 223 231 33 48 61 85 63 83 2 -2 -5 -27 -16 -55z m1218 -91
c0 -8 -8 5 -19 29 -11 24 -20 46 -20 50 1 12 39 -64 39 -79z m-49 49 c0 -5 -4
-9 -8 -9 -5 0 -9 7 -9 15 0 8 4 12 9 9 4 -3 8 -9 8 -15z m-323 -31 c-3 -7 -5
-2 -5 12 0 14 2 19 5 13 2 -7 2 -19 0 -25z m483 22 c8 -5 11 -10 5 -10 -5 0
-17 5 -25 10 -8 5 -10 10 -5 10 6 0 17 -5 25 -10z m-170 -36 c0 -2 -9 0 -20 6
-11 6 -20 13 -20 16 0 2 9 0 20 -6 11 -6 20 -13 20 -16z m217 20 c-3 -3 -12
-4 -19 -1 -8 3 -5 6 6 6 11 1 17 -2 13 -5z m1771 -30 c29 -20 28 -42 -5 -78
l-28 -30 35 25 c52 38 96 59 124 59 57 0 46 -93 -39 -325 -5 -14 3 -10 24 13
25 26 33 29 37 17 10 -26 -16 -112 -53 -172 -74 -122 -83 -152 -39 -118 26 20
66 19 66 -1 0 -38 -89 -150 -152 -191 -49 -33 -43 -41 11 -14 80 41 93 18 35
-61 -20 -27 -62 -68 -93 -91 -30 -22 -68 -54 -83 -69 -28 -29 -37 -45 -18 -33
22 14 8 -13 -22 -42 -85 -81 -290 -214 -423 -274 -67 -30 -169 -59 -209 -59
-19 0 -36 -13 -67 -52 -22 -29 -61 -71 -86 -92 -40 -35 -45 -37 -38 -16 5 17
-12 4 -59 -43 -41 -43 -77 -70 -96 -73 -16 -4 -32 -14 -35 -24 -3 -9 -16 -27
-29 -39 -20 -19 -24 -20 -23 -5 3 24 -22 30 -30 7 -9 -27 -34 -53 -51 -53 -9
0 -24 8 -34 17 -18 16 -19 16 -25 -6 -4 -16 -10 -20 -22 -15 -9 3 -38 15 -65
26 -26 10 -70 30 -98 44 -70 35 -80 25 -17 -19 33 -23 47 -38 38 -41 -43 -15
-147 -26 -253 -27 -67 -1 -132 -4 -146 -8 -24 -7 -23 -8 15 -19 22 -7 51 -12
64 -12 24 0 24 0 5 -21 -21 -23 -100 -67 -89 -50 12 20 -7 11 -25 -11 -22 -27
-86 -29 -124 -4 -31 20 -40 20 -33 1 7 -16 -15 -10 -73 20 -36 19 -46 19 -30
1 14 -18 -133 25 -192 55 -74 38 -154 95 -150 107 2 7 -18 22 -47 36 -38 17
-62 38 -89 76 -40 57 -115 115 -166 128 l-31 8 -8 101 c-7 93 -16 135 -61 293
-12 40 -16 99 -16 227 l0 173 26 -6 26 -7 -18 34 c-9 19 -20 59 -24 89 l-6 55
-11 -37 c-6 -21 -8 -51 -4 -71 7 -30 4 -38 -39 -87 l-48 -55 -13 43 c-16 54
-29 35 -17 -23 8 -38 7 -48 -13 -74 -13 -17 -26 -31 -31 -31 -4 0 -8 -4 -8
-10 0 -5 -17 -36 -37 -67 l-37 -58 -17 70 c-19 78 -25 240 -9 230 6 -3 10 -21
10 -39 0 -36 18 -96 28 -96 4 0 5 39 4 87 -5 129 10 184 61 227 40 34 42 34
47 14 7 -26 37 -38 68 -27 12 5 47 24 77 44 49 31 55 33 55 15 0 -11 8 -23 18
-28 32 -17 84 0 162 53 l76 52 17 -29 c16 -28 17 -28 46 -14 16 9 40 29 54 46
l26 31 37 -40 c20 -22 52 -50 71 -63 l36 -21 19 22 c10 13 25 47 33 76 l16 53
66 -45 c45 -30 75 -43 92 -41 23 3 26 8 29 51 2 26 4 47 6 47 1 0 20 -8 42
-19 55 -26 171 -53 195 -46 47 15 55 68 20 133 -11 21 -10 21 51 16 129 -11
202 25 121 59 l-38 16 72 -6 c81 -6 110 5 93 37 -9 17 -6 17 51 -1 74 -23 199
-37 199 -22 0 6 -20 14 -45 17 -25 4 -69 16 -98 27 l-52 19 110 -4 c191 -7
413 -61 610 -148 50 -22 100 -44 113 -49 37 -14 25 6 -19 31 l-42 23 24 19
c147 117 448 256 506 234 8 -3 33 4 56 16 33 17 107 41 147 47 3 1 16 -6 28
-15z m-1958 -99 c0 -5 -5 -3 -10 5 -5 8 -10 20 -10 25 0 6 5 3 10 -5 5 -8 10
-19 10 -25z m-1267 -15 c-15 -37 -33 -54 -33 -30 0 10 40 70 46 70 1 0 -5 -18
-13 -40z m1242 0 c3 -5 2 -10 -4 -10 -5 0 -13 5 -16 10 -3 6 -2 10 4 10 5 0
13 -4 16 -10z m-267 -50 c-3 -21 -3 -21 -16 1 -8 11 -9 18 -3 14 7 -3 11 3 12
17 1 17 3 18 6 6 2 -10 3 -27 1 -38z m-29 -22 c18 -28 26 -47 19 -40 -14 11
-62 92 -55 92 2 0 19 -23 36 -52z m58 -10 c-2 -13 -4 -5 -4 17 -1 22 1 32 4
23 2 -10 2 -28 0 -40z m253 26 c0 -2 -9 0 -20 6 -11 6 -20 13 -20 16 0 2 9 0
20 -6 11 -6 20 -13 20 -16z m-140 6 c8 -5 11 -10 5 -10 -5 0 -17 5 -25 10 -8
5 -10 10 -5 10 6 0 17 -5 25 -10z m-1170 -20 c9 -17 3 -33 -36 -98 -25 -42
-64 -99 -85 -126 -22 -27 -39 -55 -39 -63 0 -22 29 -27 63 -11 l32 15 -1 -132
c-1 -147 -3 -153 -98 -287 -41 -58 -60 -73 -77 -62 -13 8 -10 73 6 119 8 21
12 41 10 43 -2 2 -31 -19 -65 -47 -56 -47 -162 -111 -133 -80 24 24 -92 131
-205 189 l-62 31 59 77 c74 97 93 114 164 150 54 27 58 28 73 11 19 -21 96
-49 133 -49 21 0 16 5 -26 24 -28 14 -56 33 -62 45 -10 18 0 27 109 101 66 45
141 101 167 125 27 25 51 44 55 45 4 0 12 -9 18 -20z m950 -90 c6 -11 8 -20 6
-20 -3 0 -10 9 -16 20 -6 11 -8 20 -6 20 3 0 10 -9 16 -20z m250 -25 c14 -19
14 -19 -2 -6 -10 7 -18 18 -18 24 0 6 1 8 3 6 1 -2 9 -13 17 -24z m-190 -8 c0
-11 -1 -18 -3 -16 -1 2 -8 11 -15 20 -9 13 -9 16 3 16 8 0 15 -9 15 -20z
m-1004 -367 l-13 -45 -8 34 c-6 27 -4 37 11 48 24 18 25 14 10 -37z m-640
-128 c32 -22 68 -50 79 -63 16 -18 11 -16 -20 8 -22 17 -62 45 -89 62 -28 17
-45 31 -40 31 6 0 37 -17 70 -38z m606 -246 c13 -47 13 -52 -19 -130 -54 -137
-65 -190 -69 -340 -2 -77 -6 -141 -7 -143 -2 -2 -52 -8 -112 -13 -260 -25
-489 42 -626 182 l-42 43 6 100 c3 55 11 130 17 167 l12 66 61 12 c76 15 163
49 240 95 32 19 70 35 85 35 33 0 97 29 156 69 l43 30 -4 -43 c-4 -35 -1 -48
16 -65 17 -17 25 -19 48 -10 39 15 53 29 114 119 l54 81 7 -103 c4 -57 13
-125 20 -152z m-646 215 c21 -15 48 -39 59 -52 l20 -24 -25 21 c-14 12 -45 35
-69 53 -24 17 -40 31 -34 31 5 0 28 -13 49 -29z m-1 -72 c28 -30 26 -29 -17 6
-27 22 -48 41 -48 42 0 10 39 -19 65 -48z m-44 -26 c18 -21 32 -43 27 -43 -2
0 -22 19 -43 41 -22 23 -31 37 -20 31 11 -6 27 -18 36 -29z m4877 -25 c163
-68 287 -177 349 -308 l38 -79 45 -1 c177 -2 376 -122 456 -275 59 -113 69
-156 69 -310 0 -115 -4 -154 -23 -220 -57 -202 -188 -401 -402 -615 -139 -140
-236 -211 -373 -274 -143 -67 -202 -81 -347 -80 -109 0 -134 3 -197 26 -40 14
-99 44 -133 67 -33 22 -61 41 -62 41 -2 0 -4 -40 -6 -88 -7 -234 -109 -450
-298 -632 -281 -270 -660 -376 -1017 -286 -51 13 -126 40 -165 60 -39 20 -75
36 -79 36 -5 0 -20 -27 -36 -60 -103 -221 -340 -410 -620 -494 -186 -56 -404
-72 -552 -41 -38 8 -88 15 -111 15 -66 0 -157 53 -250 145 -124 123 -199 275
-211 427 l-6 78 -34 0 c-19 0 -71 -9 -116 -21 -56 -14 -99 -19 -134 -16 l-53
6 0 -83 c0 -45 7 -109 16 -141 45 -172 -10 -315 -148 -384 -52 -26 -73 -31
-134 -31 -206 0 -1015 198 -1394 341 -69 26 -95 42 -137 84 -32 33 -58 71 -69
101 l-17 49 -131 1 c-155 1 -288 29 -432 91 -344 149 -596 468 -639 811 -6 47
-9 52 -27 46 -86 -27 -308 -19 -437 16 -374 103 -755 479 -826 818 -8 37 -15
112 -15 168 -1 411 291 667 654 574 179 -45 314 -152 443 -349 4 -6 18 12 154
212 133 195 174 234 272 258 110 27 210 -11 336 -127 47 -42 139 -121 205
-176 204 -168 226 -188 251 -238 13 -27 27 -66 31 -88 l6 -39 92 -6 c50 -3
117 -11 150 -18 53 -11 60 -15 73 -48 42 -107 86 -183 116 -202 18 -10 36 -19
40 -19 5 0 33 23 63 52 l55 52 45 -45 c25 -24 68 -74 96 -111 l50 -66 33 14
c70 29 146 19 345 -46 220 -72 523 -149 748 -190 179 -32 224 -51 282 -117 52
-59 74 -117 74 -201 1 -89 -3 -87 171 -85 87 0 144 6 208 22 74 18 97 20 142
12 64 -12 109 -33 148 -69 15 -14 27 -24 27 -21 0 2 -11 36 -25 74 -61 172 -5
329 145 405 22 11 40 19 40 17 0 -2 -11 -31 -25 -65 -29 -72 -33 -130 -8 -139
16 -6 31 8 137 131 48 57 139 136 156 136 5 0 2 -19 -7 -42 -18 -51 -29 -236
-14 -258 22 -32 46 8 107 171 l61 164 94 28 c109 33 206 33 273 1 l39 -19 16
25 c37 57 74 90 100 90 14 0 55 16 91 35 35 19 71 35 80 35 13 0 130 -155 130
-172 0 -3 -37 -43 -83 -89 -64 -65 -92 -103 -124 -169 -120 -243 -134 -521
-37 -720 46 -93 151 -201 241 -248 186 -97 446 -96 645 4 195 97 341 252 400
422 31 89 33 277 4 362 -63 184 -176 310 -365 404 -88 45 -235 96 -274 96 -14
0 -44 24 -85 70 -35 39 -57 70 -50 70 7 0 51 -9 98 -20 326 -75 245 65 -91
155 -50 13 -94 27 -97 30 -3 3 25 5 62 5 l66 0 119 119 c67 68 123 133 130
152 64 172 154 248 295 249 51 1 51 1 86 56 44 70 210 247 304 323 218 176
330 223 531 218 103 -2 129 -7 183 -29z m-4908 -23 c23 -27 6 -22 -25 9 -20
20 -23 25 -9 18 11 -6 27 -18 34 -27z m-50 -37 c0 -6 -6 -5 -15 2 -8 7 -15 14
-15 16 0 2 7 1 15 -2 8 -4 15 -11 15 -16z m-1198 -99 c17 -37 28 -77 26 -90
-2 -16 -14 8 -37 76 -52 154 -51 155 11 14z m755 -141 c-3 -7 -5 -2 -5 12 0
14 2 19 5 13 2 -7 2 -19 0 -25z m451 -506 c34 -49 97 -127 139 -173 l77 -84
-73 70 c-73 71 -161 184 -207 265 -31 55 -18 39 64 -78z m-524 51 c9 -18 14
-33 12 -33 -6 0 -36 55 -36 66 0 11 5 3 24 -33z m-637 -89 c-1 -1 -18 1 -37 3
-30 4 -38 11 -54 46 -11 23 -22 46 -24 52 -3 5 22 -15 56 -45 33 -30 60 -55
59 -56z m1266 1 c70 -87 144 -165 222 -234 33 -29 44 -43 25 -30 -80 54 -214
196 -305 324 -39 54 -11 25 58 -60z m-644 55 c11 -24 11 -24 -3 -6 -9 11 -16
24 -16 30 0 12 5 7 19 -24z m964 -259 c69 -45 88 -62 40 -37 -80 41 -220 163
-292 255 -19 23 15 -6 75 -66 60 -59 139 -128 177 -152z m227 204 c36 -23 93
-57 127 -75 70 -38 79 -54 11 -19 -50 25 -228 139 -228 146 0 5 2 4 90 -52z
m-85 -154 c95 -61 93 -68 -3 -10 -73 45 -180 129 -227 180 -16 18 11 -2 60
-43 50 -42 126 -99 170 -127z m123 38 c48 -27 83 -49 77 -49 -30 1 -303 172
-322 203 -3 5 31 -17 76 -48 45 -32 121 -79 169 -106z m167 83 c-5 -5 -123 56
-130 68 -3 5 25 -7 64 -28 38 -20 68 -38 66 -40z m-1410 16 c16 -24 22 -38 14
-31 -15 12 -53 73 -46 73 2 0 17 -19 32 -42z m532 -25 c91 -124 152 -183 293
-286 15 -11 8 -9 -20 5 -57 30 -235 205 -289 286 -23 34 -40 62 -38 62 3 0 27
-30 54 -67z m433 -88 c33 -26 91 -65 128 -87 37 -22 58 -37 47 -34 -53 18
-196 120 -273 195 -48 46 -59 58 -25 28 34 -30 90 -76 123 -102z m2485 57 c19
-91 37 -128 78 -152 43 -27 157 -63 307 -99 122 -29 198 -56 233 -84 40 -33
10 -32 -135 4 -42 10 -95 19 -117 19 -28 0 -54 9 -81 26 -65 43 -55 22 16 -37
71 -58 152 -159 184 -230 19 -44 26 -79 14 -79 -10 0 -142 99 -195 146 -26 23
-61 50 -77 60 -17 9 -38 34 -48 55 -18 40 -64 91 -64 70 0 -6 8 -28 19 -49 45
-89 73 -187 73 -255 1 -88 -15 -106 -40 -46 -10 24 -31 73 -46 109 -38 92
-116 204 -143 208 -12 2 -57 -16 -99 -39 -43 -24 -74 -36 -69 -28 5 8 32 49
62 93 74 110 73 148 -13 269 -29 41 -31 47 -15 47 10 0 24 7 31 15 7 8 20 15
29 15 10 0 28 11 41 25 13 14 27 22 32 17 4 -4 14 -40 23 -80z m-1293 -68 c26
-16 33 -23 18 -18 -37 10 -121 67 -155 104 -25 28 -21 26 32 -14 35 -26 82
-58 105 -72z m-2152 23 c28 -43 83 -110 122 -149 40 -39 63 -66 51 -60 -48 26
-209 222 -230 279 -10 28 2 14 57 -70z m3151 48 c38 -20 54 -23 69 -15 17 9
23 3 55 -60 19 -38 35 -74 35 -78 0 -5 -19 -22 -42 -37 -24 -16 -78 -62 -121
-104 -64 -62 -83 -75 -105 -73 -15 2 -34 10 -42 17 -8 7 -42 21 -75 30 -104
30 -123 43 -177 123 -47 69 -49 76 -32 85 11 6 33 25 51 42 29 29 39 32 115
38 70 5 124 19 216 56 1 0 25 -10 53 -24z m-3183 -58 c23 -34 65 -86 93 -115
33 -34 43 -49 28 -41 -42 19 -192 219 -165 219 2 0 22 -28 44 -63z m-34 -9
c11 -17 35 -49 54 -70 l35 -39 -31 18 c-18 10 -32 23 -32 28 -1 6 -14 26 -30
45 -30 34 -37 50 -22 50 4 0 16 -14 26 -32z m1496 12 c8 -5 11 -10 5 -10 -5 0
-17 5 -25 10 -8 5 -10 10 -5 10 6 0 17 -5 25 -10z m-1525 -31 c11 -17 -1 -21
-15 -4 -8 9 -8 15 -2 15 6 0 14 -5 17 -11z m858 -193 c57 -34 62 -44 8 -16
-56 28 -149 108 -201 171 -36 43 -25 36 51 -37 52 -50 116 -103 142 -118z
m1576 148 c57 -14 112 -29 122 -35 12 -6 26 -6 35 -1 29 16 74 -16 100 -72 13
-28 24 -56 24 -62 0 -19 -23 -33 -137 -83 -59 -26 -135 -65 -167 -87 -32 -21
-85 -55 -118 -74 -131 -79 -208 -174 -239 -299 -15 -61 -19 -66 -45 -69 -16
-1 -70 -12 -119 -23 -50 -11 -113 -19 -140 -17 -48 3 -49 4 -57 40 -13 65 -68
159 -124 215 -77 77 -150 108 -341 144 -174 33 -394 82 -463 104 -45 14 -45
14 63 14 233 2 515 92 738 236 l73 47 105 -26 c138 -33 248 -46 398 -46 119 0
170 9 185 33 14 22 8 50 -14 75 -21 23 -22 25 -3 18 11 -4 67 -19 124 -32z
m-1734 -92 c27 -29 71 -67 97 -84 59 -38 63 -48 7 -16 -53 29 -138 113 -179
175 -27 42 -28 44 -3 13 15 -19 50 -59 78 -88z m2112 14 c51 -89 91 -122 164
-136 77 -15 120 -30 114 -41 -8 -12 -57 -11 -109 2 -50 12 -97 -5 -117 -42 -9
-18 -13 -19 -21 -8 -6 10 -7 7 -3 -10 5 -17 4 -22 -5 -16 -8 5 -11 4 -6 -3 9
-14 -14 -63 -27 -55 -6 3 -7 1 -4 -4 4 -6 -13 -53 -37 -104 -24 -52 -49 -111
-56 -131 -8 -20 -17 -35 -21 -33 -4 3 -7 -1 -6 -8 1 -31 -4 -47 -14 -47 -19 0
-4 124 26 218 15 46 24 86 21 89 -7 7 -100 -54 -151 -98 -20 -18 -64 -68 -96
-111 -33 -43 -62 -78 -65 -78 -21 0 58 174 125 273 28 42 51 79 51 82 0 4 -17
-7 -39 -24 -21 -17 -41 -27 -45 -23 -4 4 -7 3 -6 -3 6 -29 -1 -37 -29 -33 -18
3 -28 0 -24 -6 4 -5 -1 -7 -11 -3 -9 4 -15 3 -12 -2 7 -11 -22 -23 -36 -14 -7
4 -8 1 -3 -7 6 -10 4 -12 -9 -7 -9 4 -15 3 -12 -2 5 -8 -8 -18 -98 -76 -29
-19 -29 -19 -18 2 14 26 110 114 169 154 25 17 99 57 166 89 67 31 128 65 136
74 11 13 16 14 29 4 24 -20 12 104 -14 140 -19 25 -19 28 -3 43 15 15 35 26
49 28 3 0 24 -33 47 -73z m-2667 -41 c30 -6 110 -41 110 -48 0 -1 -29 -2 -64
-1 -66 1 -88 10 -107 47 -9 16 -8 18 8 14 10 -3 34 -9 53 -12z m620 -109 c20
-16 25 -23 12 -16 -33 16 -99 77 -124 114 -13 20 -3 13 28 -20 27 -27 65 -63
84 -78z m3012 -103 c21 -19 23 -33 5 -33 -8 0 -19 11 -25 25 -13 29 -6 32 20
8z m235 -387 c154 -78 266 -261 250 -410 -13 -127 -94 -206 -213 -206 -167 0
-306 178 -306 390 1 218 108 308 269 226z m733 -1268 c-26 -79 -62 -178 -78
-220 -17 -43 -27 -80 -24 -82 27 -16 556 -106 625 -106 20 0 37 -4 37 -9 0 -5
-69 -49 -152 -98 -223 -131 -227 -133 -434 -236 -1279 -639 -2715 -851 -4138
-612 -636 108 -1291 322 -1876 615 -240 120 -582 318 -574 332 3 4 18 8 34 8
66 0 614 92 628 105 2 2 -13 48 -33 102 -43 114 -105 293 -101 293 2 0 43 -20
92 -45 163 -81 369 -135 516 -135 l67 0 30 -43 c36 -53 94 -106 152 -140 84
-49 558 -199 849 -268 281 -67 616 -129 701 -129 69 0 168 29 229 68 l45 29
295 -7 c290 -7 296 -7 356 -33 35 -15 96 -31 145 -37 46 -5 113 -14 149 -20
296 -45 695 63 954 259 52 40 85 55 187 85 67 21 184 60 258 87 l135 49 127 0
c275 0 535 89 754 259 50 38 91 70 92 70 1 1 -20 -63 -47 -141z m-3205 -75
c22 -75 86 -203 142 -280 l44 -63 -130 0 -129 0 20 53 c28 74 34 177 14 260
-9 38 -14 73 -10 78 14 24 34 5 49 -48z m1990 -43 c3 -5 4 -10 1 -10 -2 0 -12
-3 -20 -6 -12 -5 -15 -2 -10 10 7 18 20 21 29 6z"/>
<path d="M3906 6638 c-3 -13 -8 -44 -11 -70 -3 -26 -20 -74 -36 -108 -50 -98
-120 -139 -245 -140 -89 0 -155 19 -273 81 -52 27 -96 47 -99 45 -10 -11 175
-121 241 -144 60 -20 85 -24 152 -20 171 10 270 114 282 299 6 74 -1 106 -11
57z"/>
<path d="M2860 6135 c0 -45 28 -94 65 -116 33 -20 35 -24 35 -73 0 -101 74
-179 172 -180 29 -1 63 3 76 7 19 7 22 5 22 -15 0 -13 9 -38 20 -56 56 -92
180 -96 257 -9 27 31 37 36 62 31 34 -7 94 10 113 33 11 14 10 15 -12 8 -39
-13 -105 -8 -138 9 -39 20 -82 72 -89 107 -7 36 -23 38 -23 4 0 -41 24 -88 63
-122 l37 -32 -36 -27 c-45 -35 -126 -44 -172 -20 -33 17 -62 61 -62 93 0 22
74 103 94 103 18 0 66 21 66 29 0 3 -23 4 -52 2 -28 -2 -68 2 -89 8 -66 20
-144 116 -118 147 15 19 12 18 -45 -11 -56 -28 -101 -32 -150 -11 -40 17 -76
60 -76 92 0 13 -4 24 -10 24 -5 0 -10 -11 -10 -25z m331 -210 c22 -19 53 -38
69 -42 36 -7 37 -13 8 -41 -98 -91 -271 -28 -286 104 -4 42 -3 44 20 44 33 0
89 19 108 37 13 12 17 8 28 -26 7 -22 31 -56 53 -76z"/>
<path d="M3470 6015 c21 -25 162 -111 235 -143 113 -49 226 -74 364 -80 91 -3
122 -2 117 7 -4 6 -27 11 -50 11 -155 0 -421 82 -609 187 -66 37 -75 40 -57
18z"/>
<path d="M3620 5860 c0 -20 198 -93 312 -115 77 -14 217 -21 206 -10 -3 4 -59
17 -124 30 -66 13 -181 42 -256 63 -76 22 -138 36 -138 32z"/>
<path d="M3058 5764 c-14 -13 -9 -85 8 -120 48 -100 164 -133 255 -71 46 31
48 50 2 26 -22 -11 -58 -19 -89 -19 -85 0 -146 56 -162 150 -4 23 -10 38 -14
34z"/>
<path d="M3720 5762 c0 -15 114 -69 185 -87 63 -16 196 -21 180 -6 -6 4 -48
16 -95 26 -78 16 -209 53 -252 70 -10 4 -18 3 -18 -3z"/>
<path d="M5670 7633 c-29 -67 -74 -123 -100 -123 -28 0 -34 18 -8 22 25 3 37
43 20 60 -19 19 -59 0 -71 -32 -22 -64 33 -113 102 -91 42 14 64 38 111 120
l38 65 -24 18 c-13 9 -27 18 -33 18 -5 0 -21 -26 -35 -57z"/>
<path d="M5877 7437 c-41 -60 -76 -84 -104 -72 -16 7 -15 9 7 14 30 8 41 57
15 67 -26 10 -55 -24 -55 -66 0 -45 24 -70 67 -70 26 0 42 12 92 67 56 61 60
68 48 87 -22 33 -31 29 -70 -27z"/>
<path d="M5970 7363 c0 -9 -7 -25 -17 -35 -15 -17 -15 -18 13 -18 16 1 40 7
53 14 l23 13 -36 21 c-31 19 -36 19 -36 5z"/>
<path d="M6010 7231 c-5 -11 -10 -33 -10 -48 0 -33 -23 -72 -33 -56 -4 6 0 13
8 17 20 7 19 35 -1 43 -20 7 -34 -13 -34 -50 0 -38 17 -67 39 -67 27 0 43 24
49 75 5 46 15 64 27 45 3 -5 1 -10 -4 -10 -6 0 -11 -9 -11 -21 0 -28 23 -19
34 14 20 55 -37 107 -64 58z"/>
<path d="M5643 7146 c-35 -16 -59 -47 -73 -96 -21 -72 23 -140 90 -140 99 0
159 137 93 209 -34 37 -68 45 -110 27z m41 -59 c16 -25 -16 -56 -38 -37 -19
15 -20 32 -4 48 15 15 28 11 42 -11z m-14 -81 c0 -20 -19 -31 -32 -18 -6 6 -7
15 -4 21 10 16 36 13 36 -3z"/>
<path d="M5406 6753 c-11 -26 13 -42 29 -19 8 10 12 23 9 27 -9 15 -31 10 -38
-8z"/>
<path d="M7829 6243 c-13 -15 -12 -15 9 -4 23 12 28 21 13 21 -5 0 -15 -7 -22
-17z"/>
<path d="M7680 6130 c-48 -13 -105 -49 -140 -86 l-35 -38 35 26 c62 45 151 84
164 71 8 -9 -22 -61 -85 -149 -50 -69 -64 -82 -101 -93 -53 -16 -98 -39 -98
-50 0 -4 33 4 74 18 41 14 78 23 81 19 16 -15 -21 -84 -76 -142 -65 -70 -144
-117 -254 -152 -67 -22 -68 -22 -30 -23 22 -1 56 3 75 9 35 9 35 9 -20 -40
-114 -101 -198 -138 -421 -184 -169 -35 -295 -42 -385 -23 -175 38 -324 162
-324 272 0 38 30 104 76 168 48 67 36 71 -17 5 -53 -67 -89 -143 -89 -189 0
-83 78 -182 191 -239 166 -85 327 -88 609 -13 212 56 292 99 435 233 33 31 83
73 112 94 63 45 120 120 139 183 18 58 18 63 -2 63 -12 0 -7 11 18 43 129 156
155 241 68 217z"/>
<path d="M7945 6034 c-37 -19 -59 -40 -32 -30 50 17 67 18 73 2 9 -23 -20
-102 -70 -189 -45 -79 -47 -96 -6 -52 32 34 60 33 60 -2 0 -31 -29 -100 -60
-143 -28 -39 -25 -48 6 -19 51 47 94 162 74 199 -6 11 -17 20 -24 20 -8 0 -3
19 16 59 35 69 46 134 28 156 -16 19 -27 19 -65 -1z"/>
<path d="M5987 5748 c-2 -23 -8 -52 -12 -63 -6 -17 -4 -17 14 4 22 24 27 66
12 89 -5 9 -10 -1 -14 -30z"/>
<path d="M5720 5683 c0 -35 3 -44 10 -33 13 20 13 67 0 75 -6 4 -10 -12 -10
-42z"/>
<path d="M7735 5608 c-26 -14 -65 -50 -65 -59 0 -4 20 4 44 17 48 27 61 21 50
-23 -8 -36 -36 -83 -93 -157 l-45 -59 33 19 c81 47 160 200 131 253 -12 23
-26 26 -55 9z"/>
<path d="M5394 5557 c3 -10 6 -30 6 -43 0 -14 4 -22 10 -19 15 9 12 39 -6 61
-14 17 -15 17 -10 1z"/>
<path d="M5872 5529 c-2 -26 1 -38 8 -34 11 7 14 75 3 75 -5 0 -9 -18 -11 -41z"/>
<path d="M4477 5723 c-16 -15 -5 -43 21 -57 35 -18 117 -32 108 -18 -3 5 -24
12 -46 16 -30 5 -45 14 -59 36 -10 17 -21 27 -24 23z"/>
<path d="M8694 5081 c-94 -23 -250 -136 -387 -282 -150 -159 -203 -278 -195
-443 5 -104 31 -169 95 -232 61 -62 112 -79 228 -78 95 0 107 3 260 58 162 58
244 74 309 62 91 -17 164 -144 125 -219 -34 -66 -97 -107 -161 -107 l-43 1 40
14 c76 27 111 102 80 169 -69 146 -346 34 -452 -182 -34 -68 -38 -84 -38 -151
0 -64 4 -81 24 -110 36 -49 118 -84 200 -84 165 0 326 86 512 274 185 187 278
330 319 493 23 93 25 142 7 214 -20 77 -60 127 -126 159 -49 25 -67 28 -146
27 -115 -1 -194 -21 -374 -96 -161 -67 -236 -81 -287 -55 -115 60 -110 190 10
272 59 40 97 51 123 36 17 -10 16 -10 -4 -11 -12 0 -40 -17 -63 -38 -35 -34
-40 -44 -40 -85 0 -38 5 -49 31 -71 82 -69 236 -2 300 131 30 62 24 146 -16
202 -32 47 -128 115 -183 131 -42 11 -102 12 -148 1z"/>
<path d="M1829 4633 c-191 -285 -369 -489 -489 -560 -199 -117 -419 -55 -513
145 -32 70 -31 93 2 38 32 -51 94 -103 140 -117 50 -15 105 -1 150 37 88 73
55 243 -69 357 -77 72 -149 100 -241 95 -81 -4 -125 -34 -158 -103 -87 -186
-28 -398 171 -610 155 -166 351 -268 543 -282 203 -14 350 68 570 318 173 198
227 250 242 237 7 -6 17 -8 20 -4 4 4 1 11 -7 16 -12 7 -9 16 19 44 19 19 58
52 87 73 29 21 52 41 51 44 -1 3 -56 50 -122 104 -66 54 -156 130 -200 168
-44 39 -90 79 -102 90 l-21 19 -73 -109z m166 -263 c21 -22 37 -40 34 -40 -3
0 -23 18 -44 40 -21 22 -37 40 -34 40 3 0 23 -18 44 -40z"/>
<path d="M7866 4454 c-11 -49 -85 -153 -168 -236 l-77 -78 58 0 c104 0 189
-52 237 -144 l29 -55 14 27 c8 15 16 64 19 112 4 98 -25 229 -75 340 -29 64
-30 65 -37 34z"/>
<path d="M2509 4040 c-96 -24 -248 -89 -316 -136 -29 -20 -84 -69 -122 -109
-108 -115 -155 -232 -155 -395 0 -373 366 -700 783 -700 171 0 294 51 417 174
130 130 184 263 184 452 0 113 -19 229 -55 335 -66 195 -211 337 -392 384 -80
21 -248 18 -344 -5z m297 -339 c78 -35 111 -137 93 -283 -29 -234 -243 -405
-404 -321 -131 68 -160 227 -73 397 45 88 146 171 253 208 63 22 81 22 131 -1z"/>
<path d="M3566 3561 c-47 -339 -192 -728 -374 -1001 l-70 -105 97 -33 c313
-107 644 -195 956 -255 275 -53 259 -51 251 -30 -19 49 -27 139 -24 282 l3
156 -49 -32 c-98 -67 -211 -78 -337 -35 -156 55 -226 157 -169 249 20 33 85
73 119 73 13 0 23 -11 31 -35 25 -76 140 -136 233 -121 110 18 163 104 123
200 -27 65 -146 130 -265 145 -67 9 -184 1 -225 -15 -16 -6 -16 -4 3 34 28 54
74 106 127 143 165 113 368 66 467 -110 l31 -55 19 64 c10 36 38 126 62 200
24 74 42 137 40 139 -2 1 -73 16 -158 32 -213 40 -481 108 -695 177 l-179 59
-17 -126z"/>
<path d="M6305 3593 c-60 -18 -181 -50 -267 -70 -87 -21 -158 -43 -158 -48 0
-6 30 -91 66 -189 190 -518 192 -790 7 -926 -78 -57 -185 -76 -278 -48 l-40
12 72 7 c110 10 168 54 182 135 10 55 -2 101 -35 136 -117 122 -368 94 -470
-53 -35 -51 -44 -137 -20 -189 38 -82 96 -164 129 -182 21 -11 21 -10 7 7 -8
10 -10 16 -5 14 6 -3 40 -19 76 -37 138 -68 319 -66 528 4 235 78 405 240 450
428 28 113 12 280 -49 526 -42 170 -61 272 -74 395 l-11 110 -110 -32z"/>
<path d="M4780 2913 c0 -84 3 -153 8 -153 4 0 39 9 77 19 59 17 96 19 240 17
124 -3 183 -8 219 -20 27 -9 54 -16 61 -16 9 0 12 43 13 155 0 145 -1 155 -17
150 -124 -39 -378 -47 -518 -16 l-83 18 0 -154z"/>
<path d="M6130 4260 c0 -5 5 -10 11 -10 5 0 7 5 4 10 -3 6 -8 10 -11 10 -2 0
-4 -4 -4 -10z"/>
<path d="M6190 4170 c6 -11 13 -20 16 -20 2 0 0 9 -6 20 -6 11 -13 20 -16 20
-2 0 0 -9 6 -20z"/>
<path d="M6206 4127 c3 -10 9 -15 12 -12 3 3 0 11 -7 18 -10 9 -11 8 -5 -6z"/>
<path d="M6234 4123 c3 -6 -2 -16 -11 -22 -16 -9 -16 -10 3 -8 21 1 26 19 9
34 -4 4 -5 3 -1 -4z"/>
<path d="M6113 3988 c-12 -16 -13 -49 -1 -42 5 3 5 10 2 16 -4 6 0 14 7 19 7
4 11 11 8 14 -4 3 -11 0 -16 -7z"/>
<path d="M6070 3955 c-7 -9 -10 -18 -6 -22 3 -3 6 -1 6 6 0 7 4 10 8 7 5 -3 9
1 9 9 0 19 -2 19 -17 0z"/>
<path d="M6035 3919 c-4 -6 -4 -13 -1 -16 3 -4 6 -1 6 6 0 7 5 9 12 5 7 -4 8
-3 4 4 -9 15 -13 15 -21 1z"/>
<path d="M6086 3775 c-9 -26 -7 -32 5 -12 6 10 9 21 6 23 -2 3 -7 -2 -11 -11z"/>
<path d="M6061 3694 c0 -11 3 -14 6 -6 3 7 2 16 -1 19 -3 4 -6 -2 -5 -13z"/>
</g>
</svg>
